# xmcd
#
# Track frame offsets: 
#        150
#        7538
#        20418
#        33193
#        48593
#        60543
#        71088
#        83093
#        95368
#        106518
#        118668
#
# Disc length: 1647 seconds
#
# Revision: 0
# Processed by: cddbd v1.5.2PL0 Copyright (c) Steve Scherf et al.
# Submitted via: ExactAudioCopy v0.95b3
#
DISCID=77066d0b
DTITLE=The Beatles  - Big Events of '66 (Masterdisc)  FLAC
DYEAR=1900
DGENRE=
TTITLE0=Rock n' Roll Music
TTITLE1=She's a Woman
TTITLE2=If I Needed Someone
TTITLE3=Day Tripper
TTITLE4=Baby's in Black
TTITLE5=I Feel Fine
TTITLE6=Yesterday
TTITLE7=I Wanna Be Your Man
TTITLE8=Nowhere Man
TTITLE9=Paperback Writer
TTITLE10=Long Tall Sally (incomplete)
EXTD=
EXTT0=
EXTT1=
EXTT2=
EXTT3=
EXTT4=
EXTT5=
EXTT6=
EXTT7=
EXTT8=
EXTT9=
EXTT10=
PLAYORDER=
